<svg width="248" height="173" xmlns="http://www.w3.org/2000/svg" xmlns:xlink="http://www.w3.org/1999/xlink" xml:space="preserve" overflow="hidden"><g transform="translate(-62 -382)"><path d="M101.271 440.627 151.057 531.811 164.168 507.776 127.382 440.627 101.271 440.627Z" fill="#FFFFFF"/><path d="M286.964 405.229 270.649 405.229C252.835 423.902 236.31 443.672 223.459 464.431 218.147 473.018 213.324 481.715 208.971 490.492L181.651 440.627 155.53 440.627 205.316 531.811 205.316 531.761C220.673 485.659 248.771 442.873 286.964 405.229Z" fill="#FFFFFF"/><path d="M85.0356 410.881 92.9838 425.449 95.0806 421.605 89.2094 410.881 85.0356 410.881Z" fill="#FFFFFF"/><path d="M194.063 410.531C189.22 410.531 185.386 413.387 185.386 418.05 185.386 422.713 189.22 425.569 194.063 425.569 198.906 425.569 202.74 422.713 202.74 418.05 202.74 413.387 198.906 410.531 194.063 410.531ZM194.063 423.991C190.458 423.991 188.811 421.355 188.811 418.06 188.811 414.765 190.458 412.129 194.063 412.129 197.668 412.129 199.315 414.765 199.315 418.06 199.315 421.355 197.668 423.991 194.063 423.991Z" fill="#FFFFFF"/><path d="M170.428 412.858 175.67 412.858 175.67 425.2 178.946 425.2 178.946 412.858 184.188 412.858 184.188 410.881 170.428 410.881 170.428 412.858Z" fill="#FFFFFF"/><path d="M162.151 416.353C160.064 415.804 158.087 415.294 158.087 414.006 158.087 412.718 159.904 412.129 161.701 412.129 163.499 412.129 165.186 412.578 166.884 413.497L167.293 413.717 167.293 411.82 167.133 411.74C165.595 410.981 163.578 410.521 161.721 410.521 158.616 410.521 155.291 411.67 155.291 414.875 155.291 418.08 158.476 418.819 161.292 419.558 163.409 420.117 165.416 420.646 165.416 422.024 165.416 423.402 163.519 423.971 161.761 423.971 159.684 423.971 157.617 423.322 155.62 422.044L155.401 421.905 154.472 423.253 154.722 423.422C156.709 424.76 159.415 425.569 161.981 425.569 165.855 425.569 168.361 423.842 168.361 421.206 168.361 417.97 164.906 417.072 162.141 416.353Z" fill="#FFFFFF"/><path d="M142.779 419.009 150.887 419.009 150.897 417.032 142.779 417.032 142.779 412.858 151.526 412.858 151.526 410.871 139.504 410.871 139.504 425.19 151.656 425.19 151.656 423.203 142.779 423.203 142.779 419.009Z" fill="#FFFFFF"/><path d="M226.904 423.203 226.904 419.009 235.022 419.009 235.022 417.032 226.904 417.032 226.904 412.858 235.651 412.858 235.661 410.871 223.639 410.871 223.639 425.19 235.781 425.19 235.791 423.203 226.904 423.203Z" fill="#FFFFFF"/><path d="M107.203 425.19 109.489 425.19C109.489 425.19 110.877 422.613 110.877 422.613L117.976 422.613 119.384 425.19 123.099 425.19 115.151 410.621 107.203 425.19ZM111.936 420.626 114.382 416.063 116.878 420.626 111.936 420.626Z" fill="#FFFFFF"/><path d="M129.569 419.997 124.577 410.881 120.852 410.881 128.81 425.449 136.758 410.881 134.462 410.881 129.569 419.997Z" fill="#FFFFFF"/><path d="M217.788 410.871 217.798 419.788 205.955 410.621 205.955 425.19 207.932 425.19 207.942 416.283 219.765 425.449 219.765 410.871 219.765 410.871 217.788 410.871Z" fill="#FFFFFF"/><path d="M114.701 405.229 112.095 405.229C109.25 408.215 106.613 411.37 104.557 414.685 103.708 416.053 102.939 417.441 102.24 418.849L97.8765 410.881 93.7027 410.881 101.651 425.449 101.651 425.449C104.107 418.08 108.59 411.24 114.691 405.229Z" fill="#FFFFFF"/></g></svg>